{"title":"Rugby.Union.Ulster.v.Zebre.2013.02.15.pdtv.x264 ","uid":8150304,"size":1682675612,"categoryP":"video","categoryS":"tv_shows","magnet":"?xt=urn:btih:8ad051ce584242a671fb40ca3c847906e21245fd&amp;dn=Rugby.Union.Ulster.v.Zebre.2013.02.15.pdtv.x264+&amp;tr=udp%3A%2F%2Ftracker.openbittorrent.com%3A80&amp;tr=udp%3A%2F%2Fopen.demonii.com%3A1337&amp;tr=udp%3A%2F%2Ftracker.coppersurfer.tk%3A6969&amp;tr=udp%3A%2F%2Fexodus.desync.com%3A6969","seeders":1,"leechers":0,"uploader":"rugbybill","files":2,"time":1361021251,"description":"SPORT: Ulster Rugby Live\nOn: BBC 2 Northern Ireland \nDate: Friday 15th February 2013 \nTime: 19:00 to 21:00 \n\nUlster needed a last minute penalty try to secure victory when these sides last met at Stadio XXV Aprille in November. Ulster sitting top of the Pro12 table will be keen to maintain that position as Italian side Zebre make the trip to Ravenhill. Stephen Watson presents live coverage of the game with commentary from Jim Neilly.\n\n\n\nGeneral\nComplete name: 2013.02.15.Ulster.v.Zebre.pdtv.x264.mkv\nFormat: Matroska\nFormat version: Version 4 / Version 2\nFile size: 1.57 GiB\nDuration: 1h 59mn\nOverall bit rate: 1 874 Kbps\nEncoded date: UTC 2013-02-16 06:58:28\nWriting application: mkvmerge v6.0.0 ('Coming Up For Air') built on Jan 20 2013 09:52:00\nWriting library: libebml v1.3.0 + libmatroska v1.4.0\n\nVideo\nID: 1\nFormat: AVC\nFormat/Info: Advanced Video Codec\nFormat profile: &lt;a class=&quot;__cf_email__&quot; href=&quot;/cdn-cgi/l/email-protection&quot; data-cfemail=&quot;83cbeae4ebc3cfb0adb2&quot;&gt;[email&amp;#160;protected]&lt;/a&gt;&lt;script cf-hash='f9e31' type=&quot;text/javascript&quot;&gt;\n/* &lt;![CDATA[ */!function(){try{var t=&quot;currentScript&quot;in document?document.currentScript:function(){for(var t=document.getElementsByTagName(&quot;script&quot;),e=t.length;e--;)if(t[e].getAttribute(&quot;cf-hash&quot;))return t[e]}();if(t&amp;&amp;t.previousSibling){var e,r,n,i,c=t.previousSibling,a=c.getAttribute(&quot;data-cfemail&quot;);if(a){for(e=&quot;&quot;,r=parseInt(a.substr(0,2),16),n=2;a.length-n;n+=2)i=parseInt(a.substr(n,2),16)^r,e+=String.fromCharCode(i);e=document.createTextNode(e),c.parentNode.replaceChild(e,c)}}}catch(u){}}();/* ]]&gt; */&lt;/script&gt;\nFormat settings, CABAC: Yes\nFormat settings, ReFrames: 8 frames\nCodec ID: V_MPEG4/ISO/AVC\nDuration: 1h 59mn\nBit rate: 1 709 Kbps\nWidth: 704 pixels\nHeight: 560 pixels\nDisplay aspect ratio: 16:9\nOriginal display aspect ratio: 16:9\nFrame rate mode: Constant\nFrame rate: 25.000 fps\nColor space: YUV\nChroma subsampling: 4:2:0\nBit depth: 8 bits\nScan type: Progressive\nBits/(Pixel*Frame): 0.173\nStream size: 1.43 GiB (91%)\nWriting library: x264 core 129 r2245 bc13772\n\nAudio\nID: 2\nFormat: AC-3\nFormat/Info: Audio Coding 3\nMode extension: CM (complete main)\nFormat settings, Endianness: Big\nCodec ID: A_AC3\nDuration: 1h 59mn\nBit rate mode: Constant\nBit rate: 128 Kbps\nChannel(s): 2 channels\nChannel positions: Front: L R\nSampling rate: 48.0 KHz\nBit depth: 16 bits\nCompression mode: Lossy\nStream size: 110 MiB (7%)\nLanguage: English","torrent":{"xt":"urn:btih:8ad051ce584242a671fb40ca3c847906e21245fd","amp;dn":"Rugby.Union.Ulster.v.Zebre.2013.02.15.pdtv.x264+","amp;tr":["udp%3A%2F%2Ftracker.openbittorrent.com%3A80","udp%3A%2F%2Fopen.demonii.com%3A1337","udp%3A%2F%2Ftracker.coppersurfer.tk%3A6969","udp%3A%2F%2Fexodus.desync.com%3A6969"],"infoHash":"8ad051ce584242a671fb40ca3c847906e21245fd","infoHashBuffer":{"type":"Buffer","data":[138,208,81,206,88,66,66,166,113,251,64,202,60,132,121,6,226,18,69,253]},"announce":[],"urlList":[]}}